<svg width="140" height="120" viewBox="0 0 140 120" fill="none" xmlns="http://www.w3.org/2000/svg">
<g clip-path="url(#clip0_72_1191)">
<g clip-path="url(#clip1_72_1191)">
<path d="M69.8 68.6C62.6 68.6 56.8 74.4 56.8 81.6C56.8 88.6 62.6 94.4 69.8 94.4C76.8 94.4 82.6 88.6 82.6 81.6C82.6 74.4 76.8 68.6 69.8 68.6ZM18.4 120H0L38.6 21.4C43.6 8.2 55.6 0 69.8 0C83.8 0 95.8 8.2 101 21.4L139.6 120H121.2L85 27.6C82.4 21 76.8 17.2 69.8 17.2C62.8 17.2 57 21 54.6 27.6L18.4 120ZM183.602 98V120H166.602V0H183.602V71L241.802 0H263.802L214.602 60L228.602 77L263.802 120H241.802L217.402 90.4L203.602 73.6L183.602 98ZM291.016 74.4H355.216V91.6H291.016V74.4ZM382.227 0H399.227V120.2H382.227V0Z" fill="#F5F5F5"/>
</g>
</g>
<defs>
<clipPath id="clip0_72_1191">
<rect width="140" height="120" fill="white"/>
</clipPath>
<clipPath id="clip1_72_1191">
<rect width="400" height="121" fill="white"/>
</clipPath>
</defs>
</svg>
